<svg width="156" height="55" viewBox="0 0 156 55" fill="none" xmlns="http://www.w3.org/2000/svg">
<g clip-path="url(#clip0_44_9)">
<path d="M7.57223 53.49C5.98556 53.49 4.63223 52.9533 3.51223 51.88C2.39223 50.76 1.83223 49.36 1.83223 47.68C1.83223 45.9067 2.39223 44.5067 3.51223 43.48C4.63223 42.4067 5.98556 41.87 7.57223 41.87C9.15889 41.87 10.5122 42.4067 11.6322 43.48C12.7522 44.5067 13.3122 45.9067 13.3122 47.68C13.3122 49.36 12.7522 50.76 11.6322 51.88C10.5122 52.9533 9.15889 53.49 7.57223 53.49Z" fill="#2B915A"/>
<path d="M18.2286 41.87V35.57L42.3786 4H52.1086L28.3086 35.57L23.7586 34.17H62.6086V41.87H18.2286ZM45.1086 53V41.87L45.3886 34.17V24.3H53.9286V53H45.1086ZM86.8784 53.7C83.0051 53.7 79.5051 52.72 76.3784 50.76C73.2984 48.8 70.8717 45.9533 69.0984 42.22C67.3251 38.44 66.4384 33.8667 66.4384 28.5C66.4384 23.1333 67.3251 18.5833 69.0984 14.85C70.8717 11.07 73.2984 8.2 76.3784 6.24C79.5051 4.28 83.0051 3.3 86.8784 3.3C90.7984 3.3 94.2984 4.28 97.3784 6.24C100.458 8.2 102.885 11.07 104.658 14.85C106.478 18.5833 107.388 23.1333 107.388 28.5C107.388 33.8667 106.478 38.44 104.658 42.22C102.885 45.9533 100.458 48.8 97.3784 50.76C94.2984 52.72 90.7984 53.7 86.8784 53.7ZM86.8784 45.79C89.1651 45.79 91.1484 45.1833 92.8284 43.97C94.5084 42.71 95.8151 40.7967 96.7484 38.23C97.7284 35.6633 98.2184 32.42 98.2184 28.5C98.2184 24.5333 97.7284 21.29 96.7484 18.77C95.8151 16.2033 94.5084 14.3133 92.8284 13.1C91.1484 11.84 89.1651 11.21 86.8784 11.21C84.6851 11.21 82.7251 11.84 80.9984 13.1C79.3184 14.3133 77.9884 16.2033 77.0084 18.77C76.0751 21.29 75.6084 24.5333 75.6084 28.5C75.6084 32.42 76.0751 35.6633 77.0084 38.23C77.9884 40.7967 79.3184 42.71 80.9984 43.97C82.7251 45.1833 84.6851 45.79 86.8784 45.79ZM112.838 41.87V35.57L136.988 4H146.718L122.918 35.57L118.368 34.17H157.218V41.87H112.838ZM139.718 53V41.87L139.998 34.17V24.3H148.538V53H139.718Z" fill="#313639"/>
</g>
<defs>
<clipPath id="clip0_44_9">
<rect width="156" height="55" fill="white"/>
</clipPath>
</defs>
</svg>
