<svg width="216" height="55" viewBox="0 0 216 55" fill="none" xmlns="http://www.w3.org/2000/svg">
<g clip-path="url(#clip0_42_2)">
<path d="M8.58785 53.49C7.00119 53.49 5.64785 52.9533 4.52785 51.88C3.40785 50.76 2.84785 49.36 2.84785 47.68C2.84785 45.9067 3.40785 44.5067 4.52785 43.48C5.64785 42.4067 7.00119 41.87 8.58785 41.87C10.1745 41.87 11.5279 42.4067 12.6479 43.48C13.7679 44.5067 14.3279 45.9067 14.3279 47.68C14.3279 49.36 13.7679 50.76 12.6479 51.88C11.5279 52.9533 10.1745 53.49 8.58785 53.49Z" fill="#2B915A"/>
<path d="M23.7177 53V4H46.6777C52.5577 4 57.0377 5.16666 60.1177 7.5C63.1977 9.78667 64.7377 12.8667 64.7377 16.74C64.7377 19.3533 64.131 21.5933 62.9177 23.46C61.7044 25.28 60.071 26.7033 58.0177 27.73C56.011 28.71 53.8177 29.2 51.4377 29.2L52.6977 26.68C55.451 26.68 57.9244 27.1933 60.1177 28.22C62.311 29.2 64.0377 30.6467 65.2977 32.56C66.6044 34.4733 67.2577 36.8533 67.2577 39.7C67.2577 43.9 65.6477 47.1667 62.4277 49.5C59.2077 51.8333 54.4244 53 48.0777 53H23.7177ZM32.8177 45.86H47.5177C50.9244 45.86 53.5377 45.3 55.3577 44.18C57.1777 43.06 58.0877 41.2633 58.0877 38.79C58.0877 36.3633 57.1777 34.59 55.3577 33.47C53.5377 32.3033 50.9244 31.72 47.5177 31.72H32.1177V24.65H45.6977C48.871 24.65 51.2977 24.09 52.9777 22.97C54.7044 21.85 55.5677 20.17 55.5677 17.93C55.5677 15.6433 54.7044 13.94 52.9777 12.82C51.2977 11.7 48.871 11.14 45.6977 11.14H32.8177V45.86ZM76.9696 53V4H84.4596L105.88 39.77H101.96L123.03 4H130.52L130.59 53H121.98L121.91 17.51H123.73L105.81 47.4H101.75L83.5496 17.51H85.6496V53H76.9696ZM155.033 53L138.793 4H148.243L162.733 48.31H158.043L173.093 4H181.493L196.123 48.31H191.573L206.413 4H215.093L198.853 53H189.193L175.823 13.03H178.343L164.763 53H155.033Z" fill="#313639"/>
</g>
<defs>
<clipPath id="clip0_42_2">
<rect width="216" height="55" fill="white"/>
</clipPath>
</defs>
</svg>
